#define d12_width 40
#define d12_height 39
static unsigned char d12_bits[] = {
   0x00, 0x00, 0x80, 0x01, 0x00, 0x00, 0x00, 0xff, 0x07, 0x00, 0x00, 0xfc,
   0x03, 0x0c, 0x00, 0x00, 0x0e, 0x00, 0x18, 0x00, 0x00, 0x03, 0xf8, 0x70,
   0x00, 0x80, 0x01, 0x8c, 0xc1, 0x00, 0xc0, 0x00, 0x8c, 0x81, 0x01, 0x60,
   0xc2, 0x84, 0x01, 0x03, 0x20, 0xc2, 0x81, 0x10, 0x0c, 0x30, 0xc0, 0x83,
   0x1c, 0x0c, 0x10, 0x20, 0x86, 0x07, 0x08, 0x10, 0x01, 0x8c, 0x03, 0x18,
   0x18, 0x01, 0x18, 0x41, 0x10, 0x08, 0x06, 0x30, 0x20, 0x30, 0x88, 0x10,
   0x20, 0x10, 0x20, 0x0c, 0x80, 0x00, 0x00, 0x60, 0x44, 0x00, 0x02, 0x00,
   0x40, 0x06, 0x00, 0x10, 0x01, 0x40, 0x22, 0x00, 0xc0, 0x00, 0xc0, 0x02,
   0x00, 0x80, 0x00, 0x40, 0x13, 0x00, 0x80, 0x00, 0x40, 0x02, 0x00, 0x00,
   0x00, 0x60, 0x0a, 0x00, 0x00, 0x00, 0x20, 0x06, 0x00, 0x00, 0x00, 0x20,
   0x04, 0x00, 0x00, 0x00, 0x30, 0x0c, 0x00, 0x00, 0x01, 0x10, 0x18, 0x00,
   0x00, 0x01, 0x10, 0x10, 0x00, 0x00, 0x00, 0x18, 0x20, 0x00, 0x00, 0x00,
   0x18, 0x60, 0x00, 0x00, 0x00, 0x08, 0xc0, 0x00, 0x00, 0x00, 0x0c, 0x80,
   0x01, 0x00, 0x02, 0x0f, 0x00, 0x03, 0x00, 0x03, 0x07, 0x00, 0x06, 0x20,
   0xc0, 0x01, 0x00, 0x0c, 0x06, 0x70, 0x00, 0x00, 0x58, 0x00, 0x1c, 0x00,
   0x00, 0x30, 0xe0, 0x07, 0x00, 0x00, 0xe0, 0x3f, 0x00, 0x00, 0x00, 0x80,
   0x01, 0x00, 0x00 };
