#define d12r_width 38
#define d12r_height 40
static unsigned char d12r_bits[] = {
   0x00, 0x00, 0x0c, 0x00, 0x00, 0x00, 0x80, 0x7f, 0x00, 0x00, 0x00, 0xf0,
   0xe1, 0x03, 0x00, 0x00, 0x3e, 0x00, 0x1f, 0x00, 0x80, 0x07, 0x00, 0x78,
   0x00, 0xc0, 0x00, 0x00, 0xc0, 0x00, 0x40, 0x00, 0x00, 0x80, 0x00, 0x60,
   0x00, 0x00, 0x80, 0x01, 0x30, 0x00, 0x00, 0x00, 0x03, 0x18, 0x00, 0x00,
   0x00, 0x06, 0x18, 0x00, 0x00, 0x00, 0x06, 0x0c, 0x00, 0x00, 0x00, 0x0c,
   0x06, 0x00, 0x00, 0x00, 0x18, 0x02, 0x00, 0x00, 0x00, 0x10, 0x03, 0x00,
   0x00, 0x00, 0x30, 0x03, 0x00, 0x00, 0x00, 0x30, 0x03, 0x00, 0x00, 0x00,
   0x30, 0x03, 0x00, 0x00, 0x00, 0x30, 0x03, 0x00, 0x00, 0x00, 0x30, 0x03,
   0x00, 0x00, 0x00, 0x30, 0x03, 0x00, 0x00, 0x00, 0x30, 0x03, 0x00, 0x00,
   0x00, 0x30, 0x03, 0x00, 0x00, 0x00, 0x30, 0x03, 0x00, 0x00, 0x00, 0x30,
   0x03, 0x00, 0x00, 0x00, 0x30, 0x03, 0x00, 0x00, 0x00, 0x30, 0x02, 0x00,
   0x00, 0x00, 0x10, 0x06, 0x00, 0x00, 0x00, 0x18, 0x0c, 0x00, 0x00, 0x00,
   0x0c, 0x18, 0x00, 0x00, 0x00, 0x06, 0x18, 0x00, 0x00, 0x00, 0x06, 0x30,
   0x00, 0x00, 0x00, 0x03, 0x60, 0x00, 0x00, 0x80, 0x01, 0x40, 0x00, 0x00,
   0x80, 0x00, 0xc0, 0x01, 0x00, 0xe0, 0x00, 0x80, 0x07, 0x00, 0x78, 0x00,
   0x00, 0x3e, 0x00, 0x1f, 0x00, 0x00, 0xf0, 0xe1, 0x03, 0x00, 0x00, 0x80,
   0x7f, 0x00, 0x00, 0x00, 0x00, 0x0c, 0x00, 0x00 };
