#define d2r_width 33
#define d2r_height 40
static unsigned char d2r_bits[] = {
   0x00, 0x3c, 0x00, 0x00, 0x00, 0x00, 0xff, 0x01, 0x00, 0x00, 0xc0, 0x83,
   0x03, 0x00, 0x00, 0xe0, 0x01, 0x0e, 0x00, 0x00, 0xf8, 0x0f, 0x18, 0x00,
   0x00, 0x1c, 0x1c, 0x30, 0x00, 0x00, 0x06, 0x70, 0x60, 0x00, 0x00, 0x06,
   0xe0, 0xc0, 0x00, 0x00, 0x02, 0x80, 0x81, 0x01, 0x00, 0x43, 0x00, 0x03,
   0x03, 0x00, 0x63, 0x00, 0x06, 0x03, 0x00, 0x63, 0x00, 0x0c, 0x06, 0x00,
   0x63, 0x00, 0x0c, 0x0c, 0x00, 0x63, 0x00, 0x18, 0x0c, 0x00, 0x43, 0x00,
   0x30, 0x18, 0x00, 0x42, 0x00, 0x60, 0x10, 0x00, 0xc2, 0x00, 0x60, 0x30,
   0x00, 0x86, 0x00, 0xc0, 0x20, 0x00, 0x86, 0x01, 0xc0, 0x60, 0x00, 0x84,
   0x01, 0x80, 0x61, 0x00, 0x0c, 0x03, 0x80, 0x41, 0x00, 0x0c, 0x03, 0x00,
   0xc1, 0x00, 0x08, 0x06, 0x00, 0xc3, 0x00, 0x18, 0x06, 0x00, 0x82, 0x00,
   0x10, 0x0c, 0x00, 0x82, 0x00, 0x30, 0x08, 0x00, 0x86, 0x01, 0x60, 0x18,
   0x00, 0x86, 0x01, 0x60, 0x30, 0x00, 0x84, 0x01, 0xc0, 0x60, 0x00, 0x84,
   0x01, 0x80, 0x61, 0x00, 0x84, 0x01, 0x80, 0xc1, 0x00, 0x8c, 0x01, 0x00,
   0x83, 0x01, 0x8c, 0x00, 0x00, 0x06, 0x07, 0xc4, 0x00, 0x00, 0x0c, 0x1c,
   0xc4, 0x00, 0x00, 0x18, 0x00, 0x76, 0x00, 0x00, 0x30, 0x00, 0x3e, 0x00,
   0x00, 0xe0, 0x00, 0x0f, 0x00, 0x00, 0x80, 0x83, 0x07, 0x00, 0x00, 0x00,
   0xff, 0x01, 0x00, 0x00, 0x00, 0x78, 0x00, 0x00 };
