#define d6_width 40
#define d6_height 38
static unsigned char d6_bits[] = {
   0x00, 0x00, 0xff, 0xff, 0xff, 0x00, 0xc0, 0xff, 0xff, 0xff, 0x00, 0x70,
   0x00, 0x00, 0xe0, 0x00, 0x18, 0x00, 0x00, 0xd8, 0x00, 0x06, 0x00, 0x00,
   0xcc, 0x80, 0x03, 0x00, 0x00, 0xc6, 0xe0, 0x00, 0x00, 0x00, 0xc3, 0x30,
   0x00, 0x00, 0x80, 0xc1, 0x1c, 0x00, 0x00, 0xc0, 0xc0, 0x8f, 0x1f, 0xf8,
   0x71, 0xc0, 0xff, 0xff, 0xff, 0x3f, 0xc0, 0x03, 0x00, 0x00, 0x10, 0xc0,
   0x03, 0x00, 0x00, 0x10, 0xc0, 0x03, 0x00, 0x00, 0x10, 0xc0, 0x03, 0x00,
   0x00, 0x10, 0xc0, 0x03, 0x00, 0x00, 0x10, 0xc0, 0x03, 0x00, 0x00, 0x10,
   0xc0, 0x03, 0x00, 0x00, 0x10, 0xc0, 0x03, 0x00, 0x00, 0x10, 0xc0, 0x03,
   0x00, 0x00, 0x10, 0xc0, 0x03, 0x00, 0x00, 0x10, 0xc0, 0x03, 0x00, 0x00,
   0x10, 0xc0, 0x03, 0x00, 0x00, 0x10, 0xc0, 0x03, 0x00, 0x00, 0x10, 0xc0,
   0x03, 0x00, 0x00, 0x10, 0xc0, 0x03, 0x00, 0x00, 0x10, 0xc0, 0x03, 0x00,
   0x00, 0x10, 0xc0, 0x03, 0x00, 0x00, 0x10, 0x60, 0x03, 0x00, 0x00, 0x10,
   0x30, 0x03, 0x00, 0x00, 0x10, 0x18, 0x03, 0x00, 0x00, 0x10, 0x0c, 0x03,
   0x00, 0x00, 0x10, 0x06, 0x03, 0x00, 0x00, 0x10, 0x03, 0x03, 0x00, 0x00,
   0x90, 0x01, 0x03, 0x00, 0x00, 0xd0, 0x00, 0x03, 0x00, 0x00, 0x70, 0x00,
   0xff, 0xff, 0xff, 0x3f, 0x00, 0xff, 0xff, 0xff, 0x1f, 0x00 };
