#define d8_width 40
#define d8_height 40
static unsigned char d8_bits[] = {
   0x00, 0x06, 0x00, 0x00, 0x00, 0x00, 0x3e, 0x00, 0x00, 0x00, 0x00, 0xe2,
   0x01, 0x00, 0x00, 0x00, 0x03, 0x1f, 0x00, 0x00, 0x00, 0x05, 0xf8, 0x00,
   0x00, 0x00, 0x05, 0x80, 0x07, 0x00, 0x80, 0x01, 0x08, 0x7c, 0x00, 0x80,
   0x00, 0x3f, 0xe0, 0x03, 0x80, 0x00, 0x23, 0x00, 0x1e, 0xc0, 0x00, 0x21,
   0x00, 0xf0, 0x40, 0x08, 0xf3, 0x01, 0xe0, 0x40, 0x00, 0x9c, 0x03, 0x50,
   0x60, 0x00, 0x08, 0x03, 0x44, 0x60, 0x00, 0x18, 0x02, 0x61, 0x20, 0x00,
   0x38, 0x83, 0x20, 0x20, 0x10, 0xf0, 0x21, 0x20, 0x30, 0x00, 0x00, 0x08,
   0x30, 0x10, 0x00, 0x00, 0x04, 0x10, 0x10, 0x00, 0x00, 0x01, 0x10, 0x18,
   0x00, 0x40, 0x00, 0x10, 0x08, 0x20, 0x20, 0x00, 0x18, 0x08, 0x20, 0x08,
   0x00, 0x08, 0x0c, 0x00, 0x02, 0x00, 0x08, 0x04, 0x00, 0x01, 0x00, 0x0c,
   0x04, 0x40, 0x00, 0x00, 0x04, 0x04, 0x90, 0x00, 0x00, 0x04, 0x06, 0x02,
   0x01, 0x00, 0x06, 0x42, 0x00, 0x02, 0x00, 0x02, 0x12, 0x00, 0x04, 0x00,
   0x02, 0x07, 0x00, 0x08, 0x00, 0x02, 0x1e, 0x00, 0x10, 0x00, 0x03, 0xf0,
   0x00, 0x00, 0x00, 0x01, 0x80, 0x0f, 0x00, 0x00, 0x01, 0x00, 0x78, 0x00,
   0x80, 0x01, 0x00, 0xc0, 0x03, 0x82, 0x00, 0x00, 0x00, 0x1e, 0x84, 0x00,
   0x00, 0x00, 0xf0, 0xc8, 0x00, 0x00, 0x00, 0x80, 0xdf, 0x00, 0x00, 0x00,
   0x00, 0x7c, 0x00, 0x00, 0x00, 0x00, 0x60, 0x00 };
