#define d10_width 40
#define d10_height 39
static unsigned char d10_bits[] = {
   0x00, 0x20, 0x00, 0x00, 0x00, 0x00, 0xf0, 0x00, 0x00, 0x00, 0x00, 0x98,
   0x03, 0x00, 0x00, 0x00, 0x18, 0x1c, 0x00, 0x00, 0x00, 0x2c, 0x70, 0x00,
   0x00, 0x00, 0x24, 0xc0, 0x03, 0x00, 0x00, 0x26, 0x00, 0x0e, 0x00, 0x00,
   0x02, 0x00, 0x39, 0x00, 0x00, 0x03, 0x40, 0xe6, 0x01, 0x00, 0x01, 0x48,
   0x0c, 0x07, 0x80, 0x01, 0x4c, 0x08, 0x1c, 0x80, 0x00, 0xde, 0x18, 0x38,
   0xc0, 0x00, 0x98, 0x10, 0x20, 0x40, 0x40, 0x90, 0x11, 0x64, 0x60, 0x40,
   0x30, 0x1b, 0x42, 0x20, 0x40, 0x20, 0x0e, 0xc0, 0x30, 0x40, 0x60, 0x00,
   0x40, 0x10, 0x00, 0x00, 0x80, 0x60, 0x18, 0xc0, 0x01, 0x40, 0x20, 0x08,
   0x20, 0xc0, 0x21, 0x30, 0x0c, 0x10, 0x00, 0x00, 0x10, 0x04, 0x08, 0x00,
   0x00, 0x18, 0x06, 0x04, 0x00, 0x00, 0x08, 0x02, 0x02, 0x00, 0x00, 0x0c,
   0x03, 0x01, 0x00, 0x00, 0x04, 0x8e, 0x00, 0x00, 0x10, 0x06, 0x44, 0x00,
   0x00, 0x10, 0x02, 0x0c, 0x01, 0x00, 0x10, 0x03, 0x18, 0x00, 0x00, 0x10,
   0x01, 0xf0, 0x08, 0x00, 0x80, 0x01, 0x80, 0x23, 0x00, 0x80, 0x00, 0x00,
   0x9e, 0x00, 0xc0, 0x00, 0x00, 0x70, 0x03, 0x40, 0x00, 0x00, 0xc0, 0x07,
   0x20, 0x00, 0x00, 0x00, 0x1e, 0x30, 0x00, 0x00, 0x00, 0x78, 0x18, 0x00,
   0x00, 0x00, 0xc0, 0x19, 0x00, 0x00, 0x00, 0x00, 0x0f, 0x00, 0x00, 0x00,
   0x00, 0x08, 0x00 };
