#define d20_width 40
#define d20_height 39
static unsigned char d20_bits[] = {
   0x00, 0x80, 0x00, 0x00, 0x00, 0x00, 0xc0, 0x0f, 0x00, 0x00, 0x00, 0x60,
   0x7e, 0x00, 0x00, 0x00, 0x70, 0xcc, 0x03, 0x00, 0x00, 0x58, 0x10, 0x3e,
   0x00, 0x00, 0x4c, 0x40, 0xe0, 0x01, 0x00, 0x06, 0x00, 0x01, 0x01, 0x00,
   0x03, 0x90, 0x04, 0x03, 0x80, 0xa1, 0x15, 0x11, 0x02, 0xc0, 0xa0, 0x28,
   0x41, 0x02, 0x60, 0x00, 0x24, 0x00, 0x07, 0x30, 0x00, 0x44, 0x00, 0x06,
   0x18, 0x00, 0x82, 0xc0, 0x04, 0x0c, 0x10, 0x0e, 0x0c, 0x0c, 0x06, 0x10,
   0x80, 0x00, 0x0a, 0x07, 0x00, 0x08, 0x00, 0x0a, 0x62, 0x80, 0x01, 0x00,
   0x18, 0x02, 0x1c, 0x00, 0x00, 0x10, 0x06, 0x18, 0x00, 0x00, 0x11, 0x04,
   0x20, 0x00, 0x00, 0x31, 0x04, 0x40, 0x00, 0x00, 0x20, 0x0c, 0x80, 0x00,
   0x00, 0x20, 0x08, 0x04, 0x01, 0x80, 0x60, 0x08, 0x04, 0x02, 0x80, 0x40,
   0x18, 0x00, 0x04, 0x00, 0x40, 0x10, 0x00, 0x08, 0x00, 0xc0, 0x10, 0x00,
   0x10, 0x40, 0x60, 0x30, 0x02, 0x20, 0x00, 0x30, 0x20, 0x02, 0x00, 0x00,
   0x18, 0x20, 0x00, 0x00, 0x00, 0x0e, 0x60, 0x00, 0x00, 0x20, 0x03, 0x40,
   0x00, 0x00, 0x80, 0x01, 0xc0, 0x01, 0x00, 0xe0, 0x00, 0xc0, 0x01, 0x00,
   0x70, 0x00, 0x80, 0x00, 0x00, 0x38, 0x00, 0x80, 0x7f, 0x00, 0x1c, 0x00,
   0x00, 0xff, 0x03, 0x06, 0x00, 0x00, 0x00, 0xff, 0x03, 0x00, 0x00, 0x00,
   0x80, 0x01, 0x00 };
