#define d4_width 36
#define d4_height 40
static unsigned char d4_bits[] = {
   0x00, 0x40, 0x00, 0x00, 0x00, 0x00, 0xc0, 0x00, 0x00, 0x00, 0x00, 0xe0,
   0x01, 0x00, 0x00, 0x00, 0x30, 0x01, 0x00, 0x00, 0x00, 0x30, 0x03, 0x00,
   0x00, 0x00, 0x18, 0x06, 0x00, 0x00, 0x00, 0x08, 0x0c, 0x00, 0x00, 0x00,
   0x0c, 0x08, 0x00, 0x00, 0x00, 0x24, 0x18, 0x00, 0x00, 0x00, 0x26, 0x30,
   0x00, 0x00, 0x00, 0x22, 0x20, 0x00, 0x00, 0x00, 0x03, 0x40, 0x00, 0x00,
   0x00, 0x01, 0xc0, 0x00, 0x00, 0x80, 0x01, 0x80, 0x01, 0x00, 0x80, 0x00,
   0x00, 0x01, 0x00, 0xc0, 0x00, 0x00, 0x03, 0x00, 0x40, 0x10, 0x00, 0x06,
   0x00, 0x60, 0x10, 0x00, 0x0c, 0x00, 0x20, 0x10, 0x1c, 0x08, 0x00, 0x30,
   0x00, 0x1c, 0x18, 0x00, 0x10, 0x00, 0x14, 0x30, 0x00, 0x18, 0x00, 0x34,
   0x20, 0x00, 0x08, 0x00, 0x20, 0x60, 0x00, 0x0c, 0x00, 0x62, 0xc0, 0x00,
   0x04, 0x08, 0xe2, 0x80, 0x01, 0x06, 0x08, 0x7e, 0x00, 0x01, 0x03, 0x08,
   0xce, 0x00, 0x03, 0x03, 0x00, 0xc0, 0x00, 0x06, 0x06, 0x00, 0x40, 0x00,
   0x0c, 0x04, 0x00, 0x00, 0x00, 0x0f, 0x08, 0x00, 0x00, 0xc0, 0x01, 0x18,
   0x00, 0x00, 0x78, 0x00, 0x30, 0x04, 0x00, 0x0e, 0x00, 0x20, 0x04, 0xc0,
   0x03, 0x00, 0x40, 0x04, 0x70, 0x00, 0x00, 0xc0, 0x00, 0x1e, 0x00, 0x00,
   0x80, 0x81, 0x03, 0x00, 0x00, 0x00, 0xf3, 0x00, 0x00, 0x00, 0x00, 0x1f,
   0x00, 0x00, 0x00, 0x00, 0x02, 0x00, 0x00, 0x00 };
