#define d4r_width 40
#define d4r_height 35
static unsigned char d4r_bits[] = {
   0x00, 0x00, 0x18, 0x00, 0x00, 0x00, 0x00, 0x18, 0x00, 0x00, 0x00, 0x00,
   0x3c, 0x00, 0x00, 0x00, 0x00, 0x66, 0x00, 0x00, 0x00, 0x00, 0x42, 0x00,
   0x00, 0x00, 0x00, 0xc3, 0x00, 0x00, 0x00, 0x00, 0x81, 0x00, 0x00, 0x00,
   0x80, 0x81, 0x01, 0x00, 0x00, 0xc0, 0x00, 0x03, 0x00, 0x00, 0xc0, 0x00,
   0x02, 0x00, 0x00, 0x60, 0x00, 0x06, 0x00, 0x00, 0x20, 0x00, 0x04, 0x00,
   0x00, 0x30, 0x00, 0x0c, 0x00, 0x00, 0x10, 0x00, 0x08, 0x00, 0x00, 0x18,
   0x00, 0x18, 0x00, 0x00, 0x0c, 0x00, 0x30, 0x00, 0x00, 0x04, 0x00, 0x20,
   0x00, 0x00, 0x06, 0x00, 0x60, 0x00, 0x00, 0x02, 0x00, 0x40, 0x00, 0x00,
   0x03, 0x00, 0xc0, 0x00, 0x00, 0x01, 0x00, 0x80, 0x00, 0x80, 0x01, 0x00,
   0x00, 0x01, 0xc0, 0x00, 0x00, 0x00, 0x03, 0x40, 0x00, 0x00, 0x00, 0x02,
   0x60, 0x00, 0x00, 0x00, 0x06, 0x20, 0x00, 0x00, 0x00, 0x04, 0x30, 0x00,
   0x00, 0x00, 0x0c, 0x10, 0x00, 0x00, 0x00, 0x18, 0x18, 0x00, 0x00, 0x00,
   0x10, 0x0c, 0x00, 0x00, 0x00, 0x30, 0x04, 0x00, 0x00, 0x00, 0x20, 0x06,
   0x00, 0x00, 0x00, 0x60, 0x02, 0x00, 0x00, 0x00, 0x40, 0xff, 0xff, 0xff,
   0xff, 0xff, 0xfe, 0xff, 0xff, 0xff, 0x7f };
