#define d6r_width 35
#define d6r_height 40
static unsigned char d6r_bits[] = {
   0x00, 0x00, 0x01, 0x00, 0x00, 0x00, 0x80, 0x07, 0x00, 0x00, 0x00, 0xe0,
   0x0c, 0x00, 0x00, 0x00, 0x30, 0x38, 0x00, 0x00, 0x00, 0x18, 0xe0, 0x00,
   0x00, 0x00, 0x0e, 0x80, 0x01, 0x00, 0x00, 0x03, 0x00, 0x07, 0x00, 0x80,
   0x01, 0x00, 0x0c, 0x00, 0xe0, 0xc0, 0x01, 0x38, 0x00, 0x30, 0xe0, 0x00,
   0xe0, 0x00, 0x18, 0x20, 0x00, 0xc0, 0x01, 0x0e, 0x20, 0x3e, 0x00, 0x07,
   0x03, 0x60, 0x73, 0x00, 0x06, 0x07, 0xc0, 0x61, 0x00, 0x07, 0x0b, 0xc0,
   0x41, 0x00, 0x06, 0x03, 0x80, 0x43, 0x00, 0x06, 0x43, 0x00, 0x7e, 0x10,
   0x06, 0x03, 0x00, 0x18, 0x08, 0x06, 0x03, 0x02, 0x00, 0x04, 0x06, 0x03,
   0x04, 0x00, 0x02, 0x06, 0x03, 0x10, 0x00, 0x00, 0x02, 0x02, 0x20, 0x00,
   0x00, 0x02, 0x02, 0x80, 0x20, 0x00, 0x02, 0x02, 0x00, 0x11, 0x00, 0x02,
   0x02, 0x00, 0x08, 0x00, 0x02, 0x02, 0x00, 0x00, 0x00, 0x02, 0x02, 0x00,
   0x00, 0x00, 0x03, 0x0e, 0x00, 0x00, 0x80, 0x01, 0x18, 0x00, 0x00, 0xe0,
   0x00, 0x70, 0x00, 0x00, 0x30, 0x00, 0xc0, 0x00, 0x00, 0x18, 0x00, 0x80,
   0x01, 0x00, 0x0c, 0x00, 0x00, 0x07, 0x00, 0x06, 0x00, 0x00, 0x0c, 0x00,
   0x03, 0x00, 0x00, 0x38, 0x80, 0x01, 0x00, 0x00, 0x60, 0xc0, 0x00, 0x00,
   0x00, 0xc0, 0x60, 0x00, 0x00, 0x00, 0x80, 0x3f, 0x00, 0x00, 0x00, 0x00,
   0x0e, 0x00, 0x00, 0x00, 0x00, 0x04, 0x00, 0x00 };
