#define d8r_width 35
#define d8r_height 40
static unsigned char d8r_bits[] = {
   0x00, 0x00, 0x02, 0x00, 0x00, 0x00, 0x80, 0x0f, 0x00, 0x00, 0x00, 0xe0,
   0x3d, 0x00, 0x00, 0x00, 0x38, 0xe0, 0x00, 0x00, 0x00, 0x1c, 0xc0, 0x01,
   0x00, 0x00, 0x07, 0x00, 0x07, 0x00, 0xc0, 0x01, 0x00, 0x1c, 0x00, 0xe0,
   0x00, 0x00, 0x30, 0x00, 0x38, 0x00, 0x00, 0xe0, 0x00, 0x0e, 0x00, 0x00,
   0x80, 0x03, 0x03, 0x00, 0x00, 0x00, 0x06, 0x03, 0x00, 0x00, 0x00, 0x06,
   0x03, 0x00, 0x00, 0x00, 0x06, 0x03, 0x00, 0x00, 0x00, 0x06, 0x03, 0x00,
   0x00, 0x00, 0x06, 0x03, 0x00, 0x00, 0x00, 0x06, 0x03, 0x00, 0x00, 0x00,
   0x06, 0x03, 0x00, 0x00, 0x00, 0x06, 0x03, 0x00, 0x00, 0x00, 0x06, 0x03,
   0x00, 0x00, 0x00, 0x06, 0x03, 0x00, 0x00, 0x00, 0x06, 0x03, 0x00, 0x00,
   0x00, 0x06, 0x03, 0x00, 0x00, 0x00, 0x06, 0x03, 0x00, 0x00, 0x00, 0x06,
   0x03, 0x00, 0x00, 0x00, 0x06, 0x03, 0x00, 0x00, 0x00, 0x06, 0x03, 0x00,
   0x00, 0x00, 0x06, 0x03, 0x00, 0x00, 0x00, 0x06, 0x03, 0x00, 0x00, 0x00,
   0x06, 0x07, 0x00, 0x00, 0x00, 0x07, 0x0e, 0x00, 0x00, 0x80, 0x03, 0x38,
   0x00, 0x00, 0xe0, 0x00, 0x70, 0x00, 0x00, 0x70, 0x00, 0xc0, 0x01, 0x00,
   0x1c, 0x00, 0x00, 0x07, 0x00, 0x07, 0x00, 0x00, 0x1c, 0xc0, 0x01, 0x00,
   0x00, 0x38, 0xe0, 0x00, 0x00, 0x00, 0xe0, 0x38, 0x00, 0x00, 0x00, 0x80,
   0x0f, 0x00, 0x00, 0x00, 0x00, 0x02, 0x00, 0x00 };
