#define superiorhealing_width 32
#define superiorhealing_height 50
static unsigned char superiorhealing_bits[] = {
   0x00, 0x00, 0x00, 0x00, 0x00, 0xfc, 0x1f, 0x00, 0x00, 0xfc, 0x1f, 0x00,
   0x00, 0xfe, 0x1f, 0x00, 0x00, 0xfe, 0x3f, 0x00, 0x00, 0xff, 0x3f, 0x00,
   0x00, 0xfc, 0x7f, 0x00, 0x00, 0xfc, 0x7f, 0x00, 0x00, 0xfc, 0x7f, 0x00,
   0x00, 0xfc, 0x7f, 0x00, 0x00, 0xfc, 0x3f, 0x00, 0x00, 0x1e, 0x3f, 0x00,
   0x00, 0x0c, 0x1e, 0x00, 0x00, 0x04, 0x3e, 0x00, 0x00, 0x00, 0x34, 0x00,
   0x00, 0x00, 0x3c, 0x00, 0x00, 0x02, 0x34, 0x00, 0x00, 0x00, 0x3e, 0x00,
   0x00, 0x04, 0x3e, 0x00, 0x00, 0x00, 0x0f, 0x00, 0x00, 0x00, 0x40, 0x00,
   0x00, 0x20, 0x80, 0x00, 0x00, 0x20, 0x00, 0x00, 0x00, 0x00, 0x00, 0x00,
   0x00, 0x00, 0x00, 0x00, 0x00, 0x00, 0x00, 0x00, 0x00, 0x00, 0x00, 0x08,
   0x00, 0x00, 0x00, 0x10, 0x00, 0x00, 0x00, 0x23, 0x00, 0x00, 0x00, 0x46,
   0x00, 0x00, 0x00, 0x00, 0x00, 0x00, 0x00, 0x00, 0x00, 0x00, 0x00, 0x00,
   0x00, 0x00, 0x00, 0x04, 0x00, 0x00, 0x00, 0x00, 0x00, 0x00, 0x00, 0x00,
   0x00, 0x00, 0x00, 0x00, 0x00, 0x00, 0x00, 0x00, 0x00, 0x00, 0x00, 0x00,
   0x00, 0x00, 0x00, 0x00, 0x00, 0x00, 0x40, 0x0e, 0x00, 0x01, 0x00, 0x0e,
   0x00, 0x00, 0x00, 0x00, 0x00, 0x00, 0x00, 0x02, 0x00, 0x00, 0x00, 0x00,
   0x00, 0x00, 0x00, 0x00, 0x00, 0x00, 0x00, 0x00, 0x00, 0x00, 0x00, 0x00,
   0x00, 0x00, 0x00, 0x00, 0x00, 0x00, 0x00, 0x00 };
