#define supremehealing_width 42
#define supremehealing_height 50
static unsigned char supremehealing_bits[] = {
   0x00, 0x00, 0x00, 0x00, 0x00, 0x00, 0x00, 0x00, 0x00, 0x00, 0x00, 0x00,
   0x00, 0x00, 0x00, 0x00, 0x00, 0x00, 0x00, 0x00, 0x00, 0x44, 0x00, 0x00,
   0x00, 0x00, 0x00, 0x04, 0x00, 0x00, 0x00, 0x00, 0x00, 0x00, 0x02, 0x00,
   0x00, 0x00, 0x00, 0xe8, 0x05, 0x00, 0x00, 0x00, 0x00, 0xf0, 0x0f, 0x00,
   0x00, 0x00, 0x00, 0xf1, 0x1f, 0x00, 0x00, 0x00, 0x00, 0xa1, 0x2f, 0x00,
   0x00, 0x00, 0x00, 0x43, 0x3f, 0x00, 0x00, 0x00, 0x00, 0x87, 0x5e, 0x00,
   0x00, 0x00, 0x00, 0x0e, 0x0d, 0x00, 0x00, 0x00, 0x00, 0x1e, 0x86, 0x00,
   0x00, 0x00, 0x00, 0x36, 0x9c, 0x00, 0x00, 0x00, 0x00, 0xfc, 0x20, 0x00,
   0x00, 0x00, 0x00, 0xd8, 0x01, 0x00, 0xe0, 0x01, 0x00, 0xb8, 0x07, 0x00,
   0xe0, 0x00, 0x00, 0xf8, 0x1f, 0x00, 0xf0, 0x03, 0x00, 0xf0, 0x1f, 0x00,
   0xf8, 0x05, 0x00, 0xc0, 0x0f, 0x00, 0x78, 0x14, 0x00, 0x80, 0x0f, 0x00,
   0x38, 0x08, 0x00, 0x00, 0x0f, 0x00, 0x38, 0x20, 0x18, 0x00, 0x0f, 0x00,
   0x78, 0x40, 0x78, 0x10, 0x0b, 0x00, 0xf8, 0x60, 0x7e, 0x18, 0x04, 0x00,
   0x38, 0x36, 0xec, 0x07, 0x00, 0x00, 0x70, 0x68, 0xfc, 0x03, 0x00, 0x00,
   0xf0, 0x41, 0x00, 0x00, 0x04, 0x00, 0xe0, 0x0f, 0x80, 0x07, 0x00, 0x00,
   0x00, 0xfc, 0xff, 0x07, 0x20, 0x00, 0x00, 0xe0, 0xff, 0x07, 0x00, 0x00,
   0x00, 0xe0, 0x7f, 0x00, 0x10, 0x00, 0x00, 0xc0, 0x0f, 0x00, 0x00, 0x00,
   0x00, 0x00, 0x00, 0x00, 0x10, 0x00, 0x00, 0x00, 0x80, 0x02, 0x10, 0x00,
   0x00, 0x00, 0xc0, 0x01, 0x00, 0x00, 0x00, 0x00, 0xc0, 0x00, 0x00, 0x00,
   0x00, 0x00, 0xe0, 0x00, 0x00, 0x00, 0x00, 0x00, 0x3c, 0x00, 0x00, 0x00,
   0x00, 0x00, 0x00, 0x00, 0x00, 0x00, 0x00, 0x00, 0x00, 0x00, 0x00, 0x00,
   0x00, 0x00, 0x00, 0x00, 0x02, 0x00, 0x00, 0x00, 0x00, 0x00, 0x00, 0x00,
   0x00, 0x00, 0x00, 0x00, 0x00, 0x00, 0x00, 0x00, 0x00, 0x00, 0x00, 0x00,
   0x00, 0x00, 0x00, 0x00, 0x00, 0x00, 0x00, 0x00, 0x00, 0x00, 0x00, 0x00,
   0x00, 0x00, 0x00, 0x00, 0x00, 0x00, 0x00, 0x00, 0x00, 0x01, 0x00, 0x00 };
